<svg version="1.2" xmlns="http://www.w3.org/2000/svg" viewBox="0 0 512 512" width="512" height="512"><style>.a{fill:#329963}</style><path class="a" d="m238.5 20.6l-7.9-13.9c-34.7 19.7-73.6 34.5-109.3 34.4-14.1 0-27.7-2.2-40.7-7.2-5.7-2.2-11.5-3.2-17.2-3.2-25.4 0-47.6 20.5-47.7 47.8v113.5 7c0 145.1 96.1 272.5 235.6 312.4h8.8c139.5-39.9 235.6-167.3 235.6-312.4v-7-113.5c-0.1-27.3-22.3-47.8-47.7-47.8-5.7 0-11.6 1-17.2 3.2-13 5-26.6 7.2-40.8 7.2-35.6 0.1-74.5-14.7-109.2-34.4-7.8-4.4-16.4-6.7-25.1-6.7-8.7 0-17.3 2.3-25.1 6.7l7.9 13.9 7.9 13.9c3-1.7 6.2-2.5 9.3-2.5 3.1 0 6.2 0.8 9.3 2.5 37.5 21.1 80.7 38.5 125 38.6 17.5 0 35.2-2.8 52.3-9.3l5.7-1.1c8.2 0 15.7 6.7 15.7 15.8v113.5 7c0 130.8-86.7 245.7-212.4 281.6l4.4 15.4 4.4-15.4c-125.7-35.9-212.4-150.8-212.4-281.6v-7-113.5c0-9.1 7.5-15.8 15.7-15.8l5.7 1.1c17.1 6.5 34.8 9.3 52.2 9.3 44.3-0.1 87.6-17.5 125.1-38.6z"/><path fill-rule="evenodd" class="a" d="m431.7 100.9v98.1c0 111.3-71.7 210.8-176 246.7-104.3-35.9-176-135.4-176-246.7v-98.1c56.2 15.5 119.8-5.4 176-35 56.2 29.6 119.8 50.5 176 35zm-96 123.1h-64v-64h-32v64h-64v32h64v64h32v-64h64z"/></svg>