<svg version="1.2" xmlns="http://www.w3.org/2000/svg" viewBox="0 0 512 512" width="512" height="512"><style>.a{fill:#329963}</style><path fill-rule="evenodd" class="a" d="m496 272c0 3.3-0.9 6.3-1.9 9.3-7.3 69.3-44.1 129.8-97.6 168.8 2.1 4.2 3.5 8.8 3.5 13.9 0 17.7-14.3 32-32 32h-224c-17.7 0-32-14.3-32-32 0-5.1 1.4-9.7 3.5-13.9-53.5-39-90.3-99.5-97.6-168.8-1-3-1.9-6-1.9-9.3 0-17.7 14.3-32 32-32h416c17.7 0 32 14.3 32 32zm-66.9 16.6c-8.4-2.6-17.3 2.5-19.7 11-9.8 34.3-31 64.8-60 85.8-7.1 5.2-8.7 15.2-3.5 22.3 3.2 4.3 8 6.6 13 6.6 3.2 0 6.5-1 9.4-3 34.6-25.3 60.2-61.8 71.9-102.9 2.4-8.5-2.6-17.4-11.1-19.8z"/><path fill-rule="evenodd" class="a" d="m414.9 455.7c0.5 2.7 1.1 5.4 1.1 8.3 0 26.5-21.5 48-48 48h-224c-26.5 0-48-21.5-48-48 0-2.9 0.6-5.6 1.1-8.3-51.6-41.2-87-101.7-94.8-170.8-0.9-2.9-2.3-7.1-2.3-12.9 0-26.5 21.5-48 48-48h149.5l205.3-205.3c12.5-12.5 28.9-18.7 45.3-18.7 16.3 0 32.8 6.2 45.2 18.7 12.5 12.4 18.7 28.9 18.7 45.2 0 16.4-6.2 32.9-18.7 45.3l-114.8 114.8h85.5c26.5 0 48 21.5 48 48 0 5.8-1.4 10-2.3 12.9-7.8 69.1-43.2 129.6-94.8 170.8zm-172.2-231.7h90.5l137.5-137.4c6.2-6.2 9.3-14.4 9.3-22.7 0-8.3-3.1-16.4-9.3-22.6-6.2-6.2-14.3-9.3-22.6-9.3-8.3 0-16.5 3.1-22.7 9.3zm235.5 55.7l0.6-3.1c1-3.1 1.2-4.4 1.2-4.6 0-8.8-7.2-16-16-16h-416c-8.8 0-16 7.2-16 16 0 0.2 0.1 1.5 1.2 4.6l0.6 3.1c6.8 64.6 41.1 121 91.1 157.4 6.3 4.6 8.4 13.1 5 20l-1.9 6.9c0 8.8 7.2 16 16 16h224c8.8 0 16-7.2 16-16l-1.9-6.9c-3.4-6.9-1.3-15.4 5-20 50-36.4 84.2-92.8 91.1-157.4z"/></svg>