<svg version="1.2" xmlns="http://www.w3.org/2000/svg" viewBox="0 0 512 512" width="512" height="512"><style>.a{fill:#4d4d4d}.b{fill:#329963}</style><path class="a" d="m176 32h160c8.8 0 16-7.2 16-16 0-8.8-7.2-16-16-16h-160c-8.8 0-16 7.2-16 16 0 8.8 7.2 16 16 16z"/><path fill-rule="evenodd" class="b" d="m432 320c0 97-79 176-176 176-97 0-176-79-176-176 0-22.4 4.8-43.9 12.7-64h326.6c7.9 20.1 12.7 41.6 12.7 64zm-176 64c0-17.7-14.3-32-32-32-17.7 0-32 14.3-32 32 0 17.7 14.3 32 32 32 17.7 0 32-14.3 32-32zm64-48c0-8.8-7.2-16-16-16-8.8 0-16 7.2-16 16 0 8.8 7.2 16 16 16 8.8 0 16-7.2 16-16z"/><path class="b" d="m256 496v-16c-44.1 0-84-17.9-113.1-46.9-29-29.1-46.9-69-46.9-113.1 0-67.3 42.9-128 106.7-150.7l10.7-3.7c6.3-2.3 10.6-8.4 10.6-15.1v-118.5h64v118.5c0 6.7 4.3 12.8 10.6 15l10.7 3.8c63.8 22.7 106.7 83.4 106.7 150.7 0 44.1-17.9 84-46.9 113.1-29.1 29-69 46.9-113.1 46.9v16 16c105.9 0 192-86.1 192-192 0-81-51.4-153.6-128-180.8v-123.2c0-4.2-1.7-8.3-4.7-11.3-3-3-7.1-4.7-11.3-4.7h-96c-4.2 0-8.3 1.7-11.3 4.7-3 3-4.7 7.1-4.7 11.3v134.5h16l-5.4-15.1-10.6 3.8c-76.6 27.2-128 99.8-128 180.8 0 105.9 86.1 192 192 192z"/></svg>